<?xml version="1.0" encoding="UTF-8" standalone="no"?>
<!-- Created with Inkscape (http://www.inkscape.org/) -->

<svg
   width="27.317858mm"
   height="28.128586mm"
   viewBox="0 0 27.317858 28.128586"
   version="1.1"
   id="svg1"
   xml:space="preserve"
   xmlns="http://www.w3.org/2000/svg"
   xmlns:svg="http://www.w3.org/2000/svg"><defs
     id="defs1" /><g
     id="layer5"
     transform="translate(-110.26287,-64.65284)"><path
       id="path1-2-2-7-2-4"
       style="fill:#000000;stroke-width:0.825556"
       d="m 117.04773,66.478311 c -0.88849,0.62806 -1.55931,1.71365 -2.36472,3.03599 2.49437,-2.31627 5.89948,-3.63975 9.56324,-3.38429 7.02912,0.49013 12.33023,6.58556 11.84011,13.61468 -1.2656,8.56295 -5.9488,11.16254 -13.91027,11.91968 -0.51839,0.0429 -1.80385,0.0532 -2.08256,0.0165 -0.0701,-0.009 -0.25186,-0.0314 -0.40411,-0.0491 -0.41067,-0.0467 -0.80556,-0.10661 -1.18597,-0.17828 1.5494,0.72478 3.21721,1.16311 4.9227,1.29449 1.46862,0.101 2.94417,-0.0271 4.37337,-0.37982 5.32644,-1.75288 9.33203,-6.5824 9.74618,-12.52171 0.54634,-7.83522 -5.36242,-14.62949 -13.19764,-15.17582 -1.74863,-0.0609 -4.64321,-0.0706 -7.30033,1.80768 z m 1.53685,1.85936 c -0.0233,0.018 -0.0774,0.0612 -0.0863,0.0672 -0.20242,0.13868 -0.54554,0.4685 -0.77876,0.74879 -0.87776,1.05502 -1.0214,1.25701 -1.47433,2.06603 -0.33749,0.60281 -0.69135,1.44248 -0.85473,2.02882 -0.24397,0.8755 -0.38953,2.09515 -0.34571,2.90421 0.0479,0.88424 0.0788,1.13779 0.20257,1.69137 0.1511,0.67619 0.41923,1.38612 0.79582,2.12028 -1.80257,-2.53437 -2.52352,-5.74999 -1.88774,-8.87387 -0.0178,0.0234 -0.0587,0.0792 -0.0656,0.0873 -0.15926,0.18665 -0.4045,0.59465 -0.55656,0.92604 -0.57235,1.24738 -0.65888,1.47953 -0.88522,2.37867 -0.16866,0.66995 -0.29123,1.57312 -0.2961,2.18177 -0.007,0.90884 0.17103,2.12423 0.42426,2.89388 0.27678,0.84117 0.37233,1.0781 0.63614,1.58027 0.45541,0.86693 1.14766,1.7374 2.06396,2.59364 0.0894,0.084 0.19639,0.18499 0.23719,0.22428 0.16174,0.15654 0.99288,0.76311 1.34669,0.98288 1.1263,0.6997 2.59298,1.25164 3.91397,1.47278 3.42128,0.57275 6.74013,0.0281 9.61182,-1.27279 0.64591,-0.2926 1.17597,-0.59055 1.52755,-0.82321 -3.87151,0.81628 -7.63794,0.28299 -10.74404,-2.22828 -4.06063,-3.47133 -5.07521,-9.17962 -2.78485,-13.75007 z m 0.39791,2.51303 c -0.32637,0 -0.33486,0.49971 0,0.49971 h 1.79937 c 0.039,0.17294 0.31992,1.40461 0.65578,2.86701 0.35835,1.56236 0.72556,3.65808 0.80253,3.94446 0.066,0.2469 0.12713,0.52765 0.30955,0.77205 0.18093,0.2439 0.49987,0.41289 0.93069,0.41289 h 7.99693 c 0.42982,0 0.74978,-0.169 0.9312,-0.41289 0.18193,-0.2449 0.24307,-0.52517 0.30955,-0.77257 0.13245,-0.49629 0.8097,-3.47012 0.94464,-3.97391 0.076,-0.28289 0.10131,-0.57802 0.0114,-0.84491 -0.09,-0.26689 -0.36027,-0.49403 -0.69763,-0.49403 h -9.99577 c -0.32637,0 -0.32986,0.50023 0,0.50023 h 9.99577 c 0.16243,0 0.18329,0.0346 0.22376,0.15451 0.04,0.11895 0.0378,0.33706 -0.0202,0.55397 -0.13343,0.4958 -0.80969,3.47116 -0.94464,3.97495 -0.0675,0.2529 -0.13092,0.4721 -0.22789,0.60255 -0.097,0.13094 -0.20982,0.21187 -0.52969,0.21187 h -7.99693 c -0.31987,0 -0.43272,-0.0809 -0.52968,-0.21187 -0.0975,-0.12994 -0.16095,-0.34964 -0.22893,-0.60203 -0.057,-0.21291 -0.43949,-2.36502 -0.79685,-3.92638 -0.35835,-1.56185 -0.69969,-3.06131 -0.69969,-3.06131 -0.025,-0.11445 -0.12647,-0.1943 -0.24392,-0.1943 z m 4.49792,3.9982 c -0.13794,0 -0.2496,0.11167 -0.2496,0.25012 0,0.13845 0.11165,0.2496 0.2496,0.2496 h 7.99693 c 0.13894,0 0.25011,-0.11116 0.25011,-0.2496 0,-0.13845 -0.11117,-0.25012 -0.25011,-0.25012 z m 0.50023,1.99937 c -0.13794,0 -0.25012,0.11115 -0.25012,0.24959 0,0.13845 0.11216,0.25012 0.25012,0.25012 h 6.99698 c 0.13894,0 0.2496,-0.11167 0.2496,-0.25012 0,-0.13844 -0.11066,-0.24959 -0.2496,-0.24959 z m -13.71648,1.5353 c -0.0533,3.96763 1.55708,7.77632 4.44056,10.5022 0.81445,0.52086 1.77538,0.97612 2.87424,1.36013 0.14456,0.0509 0.31755,0.11261 0.38396,0.13694 0.2637,0.0974 1.51894,0.37209 2.03398,0.44493 1.63959,0.23199 3.59324,0.12304 5.21415,-0.2899 2.1028,-0.53572 4.26065,-1.60446 5.81153,-2.87941 1.67819,-1.3796 2.49252,-2.37072 3.51813,-4.27778 0.41945,-0.77991 0.67956,-1.49698 0.83871,-1.99884 -2.63406,3.89561 -7.13955,6.40518 -12.1884,6.26267 -5.96663,-0.16844 -10.96603,-3.99057 -12.92686,-9.26094 z m 14.21619,1.46348 c -0.68572,0 -1.24954,0.56232 -1.24954,1.24953 0,0.68722 0.56331,1.24902 1.24954,1.24902 0.68771,0 1.24953,-0.5618 1.24953,-1.24902 0,-0.68721 -0.56133,-1.24953 -1.24953,-1.24953 z m 5.99756,0 c -0.68622,0 -1.24953,0.56232 -1.24953,1.24953 0,0.68722 0.56331,1.24902 1.24953,1.24902 0.68772,0 1.24954,-0.5618 1.24954,-1.24902 0,-0.68721 -0.56132,-1.24953 -1.24954,-1.24953 z m -5.99756,0.49971 c 0.41782,0 0.7493,0.333 0.7493,0.74982 0,0.41683 -0.33148,0.74931 -0.7493,0.74931 -0.41634,0 -0.74983,-0.33248 -0.74983,-0.74931 0,-0.41682 0.33349,-0.74982 0.74983,-0.74982 z m 5.99756,0 c 0.41783,0 0.74931,0.333 0.74931,0.74982 0,0.41683 -0.33148,0.74931 -0.74931,0.74931 -0.41633,0 -0.74982,-0.33248 -0.74982,-0.74931 0,-0.41682 0.33349,-0.74982 0.74982,-0.74982 z" /></g></svg>
